<svg width="175" height="175" viewBox="0 0 175 175" fill="none" xmlns="http://www.w3.org/2000/svg">
<circle cx="87.5" cy="87.5" r="87.5" fill="#4C99C0"/>
<circle cx="87" cy="87" r="80" fill="#3D1901"/>
<path d="M48.284 98.414C45.294 98.414 42.672 97.885 40.418 96.827C38.164 95.769 36.393 94.297 35.105 92.411C33.863 90.479 33.242 88.271 33.242 85.787C33.242 84.683 33.495 83.947 34.001 83.579C34.507 83.165 35.22 82.958 36.14 82.958C36.876 82.958 37.52 83.119 38.072 83.441C38.67 83.717 38.992 84.223 39.038 84.959C39.084 86.523 39.452 87.949 40.142 89.237C40.832 90.479 41.844 91.445 43.178 92.135C44.512 92.825 46.145 93.17 48.077 93.17C50.975 93.17 53.206 92.388 54.77 90.824C56.38 89.214 57.185 86.73 57.185 83.372V52.805H48.215C47.571 52.805 47.065 52.529 46.697 51.977C46.375 51.425 46.214 50.804 46.214 50.114C46.214 49.516 46.352 48.941 46.628 48.389C46.95 47.837 47.479 47.561 48.215 47.561H60.359C61.049 47.561 61.647 47.745 62.153 48.113C62.705 48.435 62.981 48.941 62.981 49.631V83.372C62.981 87.006 62.314 89.927 60.98 92.135C59.692 94.343 57.921 95.953 55.667 96.965C53.459 97.931 50.998 98.414 48.284 98.414ZM86.8965 98.414C84.0905 98.414 81.5605 97.931 79.3065 96.965C77.0985 95.953 75.3275 94.366 73.9935 92.204C72.7055 89.996 72.0615 87.052 72.0615 83.372V62.603C72.0615 58.923 72.7055 56.002 73.9935 53.84C75.3275 51.632 77.0985 50.045 79.3065 49.079C81.5605 48.067 84.0905 47.561 86.8965 47.561C89.7025 47.561 92.2325 48.067 94.4865 49.079C96.7405 50.045 98.5115 51.632 99.7995 53.84C101.134 56.002 101.801 58.923 101.801 62.603V83.372C101.801 87.052 101.134 89.996 99.7995 92.204C98.5115 94.366 96.7405 95.953 94.4865 96.965C92.2325 97.931 89.7025 98.414 86.8965 98.414ZM86.8965 93.17C89.7485 93.17 91.9795 92.388 93.5895 90.824C95.1995 89.214 96.0045 86.73 96.0045 83.372V62.603C96.0045 59.245 95.1995 56.784 93.5895 55.22C91.9795 53.61 89.7485 52.805 86.8965 52.805C84.0445 52.805 81.8135 53.61 80.2035 55.22C78.6395 56.784 77.8575 59.245 77.8575 62.603V83.372C77.8575 86.73 78.6395 89.214 80.2035 90.824C81.8135 92.388 84.0445 93.17 86.8965 93.17ZM124.077 98C123.387 98 122.72 97.839 122.076 97.517C121.478 97.149 121.179 96.62 121.179 95.93V78.473C121.179 78.197 121.133 77.967 121.041 77.783L106.758 51.149C106.666 50.919 106.597 50.712 106.551 50.528C106.505 50.298 106.482 50.114 106.482 49.976C106.482 49.516 106.666 49.102 107.034 48.734C107.402 48.366 107.839 48.09 108.345 47.906C108.897 47.676 109.426 47.561 109.932 47.561C110.438 47.561 110.829 47.699 111.105 47.975C111.427 48.205 111.726 48.573 112.002 49.079L124.077 72.746L136.221 49.079C136.497 48.573 136.796 48.205 137.118 47.975C137.44 47.699 137.831 47.561 138.291 47.561C138.797 47.561 139.303 47.676 139.809 47.906C140.361 48.09 140.821 48.366 141.189 48.734C141.557 49.102 141.741 49.516 141.741 49.976C141.741 50.114 141.718 50.298 141.672 50.528C141.626 50.712 141.557 50.919 141.465 51.149L127.182 77.783C127.044 77.967 126.975 78.197 126.975 78.473V95.93C126.975 96.62 126.676 97.149 126.078 97.517C125.48 97.839 124.813 98 124.077 98Z" fill="#197AAA"/>
<path d="M41.84 125.256C40.4747 125.256 39.28 125.053 38.256 124.648C37.232 124.221 36.4427 123.731 35.888 123.176C35.3333 122.6 35.056 122.088 35.056 121.64C35.056 121.427 35.1093 121.213 35.216 121C35.344 120.765 35.4933 120.573 35.664 120.424C35.856 120.253 36.048 120.168 36.24 120.168C36.496 120.168 36.7413 120.296 36.976 120.552C37.232 120.808 37.5413 121.117 37.904 121.48C38.288 121.821 38.7787 122.12 39.376 122.376C39.9733 122.632 40.752 122.76 41.712 122.76C42.608 122.76 43.3867 122.621 44.048 122.344C44.7093 122.045 45.2213 121.608 45.584 121.032C45.968 120.435 46.16 119.688 46.16 118.792C46.16 117.875 45.968 117.128 45.584 116.552C45.2 115.976 44.688 115.496 44.048 115.112C43.4293 114.728 42.7467 114.387 42 114.088C41.2747 113.789 40.528 113.491 39.76 113.192C39.0133 112.872 38.3307 112.488 37.712 112.04C37.0933 111.571 36.592 110.973 36.208 110.248C35.824 109.523 35.632 108.605 35.632 107.496C35.632 106.323 35.8453 105.352 36.272 104.584C36.6987 103.816 37.264 103.208 37.968 102.76C38.672 102.312 39.4293 102.003 40.24 101.832C41.072 101.64 41.8827 101.544 42.672 101.544C43.248 101.544 43.856 101.587 44.496 101.672C45.136 101.757 45.744 101.885 46.32 102.056C46.896 102.227 47.3653 102.451 47.728 102.728C48.0907 102.984 48.272 103.293 48.272 103.656C48.272 103.827 48.2293 104.029 48.144 104.264C48.0587 104.477 47.9307 104.68 47.76 104.872C47.5893 105.043 47.376 105.128 47.12 105.128C46.8853 105.128 46.5973 105.032 46.256 104.84C45.9147 104.627 45.456 104.424 44.88 104.232C44.3253 104.019 43.5893 103.912 42.672 103.912C41.904 103.912 41.1787 104.019 40.496 104.232C39.8347 104.445 39.3013 104.797 38.896 105.288C38.512 105.779 38.32 106.429 38.32 107.24C38.32 108.008 38.512 108.637 38.896 109.128C39.28 109.619 39.7813 110.024 40.4 110.344C41.0187 110.664 41.7013 110.963 42.448 111.24C43.1947 111.496 43.9413 111.805 44.688 112.168C45.4347 112.509 46.1173 112.936 46.736 113.448C47.376 113.96 47.888 114.632 48.272 115.464C48.656 116.275 48.848 117.299 48.848 118.536C48.848 120.072 48.5387 121.341 47.92 122.344C47.3227 123.325 46.5013 124.061 45.456 124.552C44.4107 125.021 43.2053 125.256 41.84 125.256ZM58.6385 125.192C58.2758 125.192 57.9238 125.117 57.5825 124.968C57.2625 124.797 57.0598 124.563 56.9745 124.264L50.6385 102.984C50.6172 102.899 50.6065 102.803 50.6065 102.696C50.6065 102.483 50.6918 102.301 50.8625 102.152C51.0332 101.981 51.2358 101.853 51.4705 101.768C51.7265 101.661 51.9718 101.608 52.2065 101.608C52.4412 101.608 52.6545 101.661 52.8465 101.768C53.0598 101.853 53.1878 102.003 53.2305 102.216L58.6385 121.224L61.6785 109.512C61.7638 109.213 61.9345 109 62.1905 108.872C62.4678 108.744 62.7558 108.68 63.0545 108.68C63.3745 108.68 63.6625 108.744 63.9185 108.872C64.1745 109 64.3345 109.213 64.3985 109.512L67.4705 121.224L72.8785 102.216C72.9425 102.003 73.0598 101.853 73.2305 101.768C73.4225 101.661 73.6358 101.608 73.8705 101.608C74.1265 101.608 74.3718 101.661 74.6065 101.768C74.8625 101.853 75.0758 101.981 75.2465 102.152C75.4172 102.301 75.5025 102.483 75.5025 102.696C75.5025 102.803 75.4812 102.899 75.4385 102.984L69.1665 124.264C69.0598 124.563 68.8465 124.797 68.5265 124.968C68.2065 125.117 67.8545 125.192 67.4705 125.192C67.1078 125.192 66.7558 125.117 66.4145 124.968C66.0945 124.797 65.9025 124.563 65.8385 124.264L63.0545 113.704L60.3025 124.264C60.2172 124.563 60.0145 124.797 59.6945 124.968C59.3745 125.117 59.0225 125.192 58.6385 125.192ZM79.488 125C79.1893 125 78.912 124.925 78.656 124.776C78.4 124.605 78.272 124.36 78.272 124.04V102.568C78.272 102.248 78.4 102.013 78.656 101.864C78.912 101.693 79.1893 101.608 79.488 101.608H90.88C91.2213 101.608 91.456 101.736 91.584 101.992C91.7333 102.248 91.808 102.515 91.808 102.792C91.808 103.112 91.7227 103.4 91.552 103.656C91.4027 103.912 91.1787 104.04 90.88 104.04H80.96V112.168H85.952C86.2507 112.168 86.4747 112.285 86.624 112.52C86.7947 112.755 86.88 113.021 86.88 113.32C86.88 113.576 86.8053 113.821 86.656 114.056C86.528 114.291 86.2933 114.408 85.952 114.408H80.96V122.568H90.88C91.1787 122.568 91.4027 122.696 91.552 122.952C91.7227 123.187 91.808 123.475 91.808 123.816C91.808 124.093 91.7333 124.36 91.584 124.616C91.456 124.872 91.2213 125 90.88 125H79.488ZM95.9255 125C95.6268 125 95.3495 124.925 95.0935 124.776C94.8375 124.605 94.7095 124.36 94.7095 124.04V102.568C94.7095 102.248 94.8375 102.013 95.0935 101.864C95.3495 101.693 95.6268 101.608 95.9255 101.608H107.318C107.659 101.608 107.894 101.736 108.022 101.992C108.171 102.248 108.246 102.515 108.246 102.792C108.246 103.112 108.16 103.4 107.99 103.656C107.84 103.912 107.616 104.04 107.318 104.04H97.3975V112.168H102.39C102.688 112.168 102.912 112.285 103.062 112.52C103.232 112.755 103.318 113.021 103.318 113.32C103.318 113.576 103.243 113.821 103.094 114.056C102.966 114.291 102.731 114.408 102.39 114.408H97.3975V122.568H107.318C107.616 122.568 107.84 122.696 107.99 122.952C108.16 123.187 108.246 123.475 108.246 123.816C108.246 124.093 108.171 124.36 108.022 124.616C107.894 124.872 107.659 125 107.318 125H95.9255ZM116.715 125C116.374 125 116.064 124.925 115.787 124.776C115.51 124.605 115.371 124.36 115.371 124.04V104.104H110.187C109.91 104.104 109.686 103.976 109.515 103.72C109.344 103.464 109.259 103.165 109.259 102.824C109.259 102.525 109.334 102.248 109.483 101.992C109.632 101.736 109.867 101.608 110.187 101.608H123.243C123.563 101.608 123.798 101.736 123.947 101.992C124.096 102.248 124.171 102.525 124.171 102.824C124.171 103.144 124.096 103.443 123.947 103.72C123.798 103.976 123.563 104.104 123.243 104.104H118.059V124.04C118.059 124.36 117.92 124.605 117.643 124.776C117.366 124.925 117.056 125 116.715 125ZM132.153 125.256C130.787 125.256 129.593 125.053 128.569 124.648C127.545 124.221 126.755 123.731 126.201 123.176C125.646 122.6 125.368 122.088 125.368 121.64C125.368 121.427 125.422 121.213 125.529 121C125.657 120.765 125.806 120.573 125.977 120.424C126.169 120.253 126.361 120.168 126.553 120.168C126.809 120.168 127.054 120.296 127.289 120.552C127.545 120.808 127.854 121.117 128.217 121.48C128.601 121.821 129.091 122.12 129.689 122.376C130.286 122.632 131.065 122.76 132.025 122.76C132.921 122.76 133.699 122.621 134.361 122.344C135.022 122.045 135.534 121.608 135.897 121.032C136.281 120.435 136.473 119.688 136.473 118.792C136.473 117.875 136.281 117.128 135.897 116.552C135.513 115.976 135.001 115.496 134.361 115.112C133.742 114.728 133.059 114.387 132.312 114.088C131.587 113.789 130.841 113.491 130.073 113.192C129.326 112.872 128.643 112.488 128.025 112.04C127.406 111.571 126.905 110.973 126.521 110.248C126.137 109.523 125.945 108.605 125.945 107.496C125.945 106.323 126.158 105.352 126.585 104.584C127.011 103.816 127.577 103.208 128.281 102.76C128.985 102.312 129.742 102.003 130.553 101.832C131.385 101.64 132.195 101.544 132.985 101.544C133.561 101.544 134.169 101.587 134.809 101.672C135.449 101.757 136.057 101.885 136.633 102.056C137.209 102.227 137.678 102.451 138.041 102.728C138.403 102.984 138.585 103.293 138.585 103.656C138.585 103.827 138.542 104.029 138.457 104.264C138.371 104.477 138.243 104.68 138.073 104.872C137.902 105.043 137.689 105.128 137.433 105.128C137.198 105.128 136.91 105.032 136.569 104.84C136.227 104.627 135.769 104.424 135.193 104.232C134.638 104.019 133.902 103.912 132.985 103.912C132.217 103.912 131.491 104.019 130.809 104.232C130.147 104.445 129.614 104.797 129.209 105.288C128.825 105.779 128.633 106.429 128.633 107.24C128.633 108.008 128.825 108.637 129.209 109.128C129.593 109.619 130.094 110.024 130.713 110.344C131.331 110.664 132.014 110.963 132.76 111.24C133.507 111.496 134.254 111.805 135.001 112.168C135.747 112.509 136.43 112.936 137.049 113.448C137.689 113.96 138.201 114.632 138.585 115.464C138.969 116.275 139.161 117.299 139.161 118.536C139.161 120.072 138.851 121.341 138.233 122.344C137.635 123.325 136.814 124.061 135.769 124.552C134.723 125.021 133.518 125.256 132.153 125.256Z" fill="#4C99C0"/>
<circle cx="87" cy="141" r="4" fill="#FFC803"/>
</svg>
